<svg width="37" height="37" viewBox="0 0 37 37" fill="none" xmlns="http://www.w3.org/2000/svg">
<circle cx="18.5" cy="18.5" r="18" fill="#FEE500"/>
<path d="M18.5521 9.18732C12.9519 9.18732 8.43561 12.8003 8.43561 17.1865C8.43561 20.0336 10.3144 22.5265 13.1325 23.9501L12.1787 27.5125C12.1607 27.5659 12.1579 27.6232 12.1707 27.6781C12.1835 27.733 12.2113 27.7832 12.251 27.8232C12.3088 27.8743 12.3833 27.9025 12.4605 27.9027C12.5245 27.8975 12.5852 27.8723 12.6339 27.8304L16.7383 25.0629C17.3442 25.1465 17.9549 25.1899 18.5665 25.1929C24.1595 25.1929 28.683 21.5799 28.683 17.1865C28.683 12.7931 24.145 9.18732 18.5521 9.18732Z" fill="#392020"/>
<path d="M11.976 15.9219H10.8704C10.7334 15.9259 10.5981 15.8908 10.4802 15.8208C10.4279 15.788 10.3829 15.7447 10.3481 15.6937C10.3133 15.6428 10.2894 15.5851 10.2779 15.5245C10.2744 15.486 10.2744 15.4474 10.2779 15.4089C10.2745 15.3369 10.2884 15.2652 10.3186 15.1998C10.3488 15.1344 10.3943 15.0772 10.4513 15.0331C10.5773 14.9419 10.7294 14.8937 10.8849 14.8958H14.2161C14.3542 14.8909 14.4905 14.9288 14.6063 15.0042C14.6598 15.0355 14.7058 15.0784 14.7408 15.1296C14.7758 15.1809 14.7989 15.2392 14.8086 15.3005C14.8122 15.3365 14.8122 15.3729 14.8086 15.4089C14.812 15.4819 14.7981 15.5547 14.7679 15.6212C14.7378 15.6878 14.6923 15.7462 14.6352 15.7918C14.5123 15.8829 14.3617 15.9289 14.2089 15.9219H13.1394V19.7228C13.1438 19.8038 13.1312 19.8848 13.1026 19.9606C13.074 20.0365 13.0299 20.1057 12.9732 20.1636C12.9188 20.219 12.8534 20.2624 12.7812 20.2911C12.7091 20.3197 12.6317 20.3329 12.5541 20.3298C12.4184 20.3337 12.2856 20.2903 12.1783 20.207C12.0763 20.1256 12.007 20.0101 11.9832 19.8818C11.9761 19.829 11.9761 19.7756 11.9832 19.7228L11.976 15.9219Z" fill="#FEE500"/>
<path d="M15.1276 15.1776C15.1594 15.0587 15.234 14.9557 15.3372 14.8886C15.4471 14.8263 15.5723 14.7962 15.6985 14.8018H15.9731C16.107 14.797 16.2396 14.8296 16.356 14.8958C16.4795 14.9788 16.5672 15.1052 16.6017 15.2499L18.0469 19.3326C18.0844 19.4391 18.1158 19.5477 18.1409 19.6578C18.1433 19.7035 18.1433 19.7493 18.1409 19.7951C18.1433 19.8655 18.1303 19.9356 18.1029 20.0005C18.0754 20.0654 18.0341 20.1235 17.9819 20.1708C17.9313 20.2227 17.8705 20.2636 17.8034 20.291C17.7362 20.3183 17.6642 20.3315 17.5917 20.3298C17.4802 20.3409 17.3683 20.3141 17.2739 20.2538C17.1795 20.1935 17.1082 20.1032 17.0714 19.9974L16.7679 19.1086H14.8675L14.564 19.9974C14.5281 20.1053 14.4559 20.1974 14.3597 20.258C14.2635 20.3186 14.1493 20.344 14.0365 20.3298C13.9143 20.333 13.7946 20.2948 13.6969 20.2214C13.6016 20.1456 13.5374 20.0378 13.5162 19.9179C13.5124 19.8771 13.5124 19.8359 13.5162 19.7951C13.5038 19.7233 13.5038 19.6501 13.5162 19.5783C13.5162 19.4988 13.5668 19.4121 13.5957 19.3326L15.1276 15.1776ZM15.8502 16.1243L15.1637 18.2921H16.5295L15.8502 16.1243Z" fill="#FEE500"/>
<path d="M18.3064 15.409C18.299 15.2468 18.3562 15.0884 18.4653 14.9682C18.5208 14.9122 18.5874 14.8685 18.6609 14.8399C18.7343 14.8112 18.8129 14.7983 18.8917 14.8019C19.027 14.8004 19.1591 14.8436 19.2674 14.9248C19.3678 15.0096 19.4344 15.1275 19.4553 15.2572C19.4624 15.3075 19.4624 15.3587 19.4553 15.409V19.2099H21.4424C21.5802 19.2081 21.7156 19.2456 21.8327 19.3182C21.8853 19.3506 21.9305 19.3938 21.9653 19.4449C22.0002 19.4959 22.0239 19.5537 22.035 19.6145C22.035 19.6145 22.035 19.6868 22.035 19.7229C22.0384 19.7949 22.0244 19.8665 21.9943 19.932C21.9641 19.9974 21.9186 20.0546 21.8616 20.0987C21.7356 20.1899 21.5835 20.238 21.428 20.2359H18.9856C18.83 20.2459 18.6754 20.2054 18.5448 20.1204C18.428 20.033 18.3501 19.9033 18.328 19.7591C18.3227 19.6797 18.3227 19.6 18.328 19.5206L18.3064 15.409Z" fill="#FEE500"/>
<path d="M22.1652 15.409C22.1608 15.2473 22.2176 15.09 22.3241 14.9682C22.4324 14.8698 22.5714 14.8117 22.7175 14.8038C22.8636 14.7959 23.008 14.8387 23.1262 14.9248C23.2288 15.0089 23.298 15.1267 23.3213 15.2572C23.3249 15.3077 23.3249 15.3585 23.3213 15.409V17.1794L25.1495 15.0693C25.22 14.9973 25.2948 14.9298 25.3735 14.8671C25.4477 14.8229 25.5328 14.8003 25.6192 14.802C25.7455 14.8013 25.869 14.8391 25.9733 14.9104C26.0224 14.9435 26.0644 14.9861 26.0967 15.0358C26.1289 15.0855 26.1509 15.1411 26.1612 15.1994C26.1641 15.2137 26.1641 15.2285 26.1612 15.2428C26.1577 15.2595 26.1577 15.2767 26.1612 15.2934C26.1609 15.3694 26.141 15.4441 26.1034 15.5102C26.065 15.5801 26.019 15.6455 25.9661 15.7052L24.7665 17.0204L26.2117 19.2605V19.3327C26.2868 19.4363 26.3453 19.5509 26.3852 19.6724V19.7085C26.3935 19.7922 26.3815 19.8767 26.35 19.9548C26.3185 20.0328 26.2686 20.102 26.2045 20.1565C26.084 20.2476 25.9365 20.296 25.7854 20.2938C25.685 20.298 25.5853 20.2755 25.4964 20.2287C25.4001 20.1642 25.3208 20.0775 25.2651 19.9758L23.9211 17.808L23.278 18.4801V19.6868C23.2823 19.8485 23.2255 20.0058 23.119 20.1276C23.0619 20.1834 22.994 20.227 22.9194 20.2555C22.8448 20.2841 22.7652 20.2972 22.6854 20.2938C22.5521 20.2966 22.4219 20.2532 22.3169 20.171C22.2148 20.0896 22.1456 19.9742 22.1218 19.8458C22.1147 19.7931 22.1147 19.7395 22.1218 19.6868L22.1652 15.409Z" fill="#FEE500"/>
</svg>
